<?xml version="1.0" encoding="UTF-8"?>
<svg width="27px" height="25px" viewBox="0 0 27 25" version="1.1" xmlns="http://www.w3.org/2000/svg" xmlns:xlink="http://www.w3.org/1999/xlink">
    <!-- Generator: Sketch 50.2 (55047) - http://www.bohemiancoding.com/sketch -->
    <title>Shape</title>
    <desc>Created with Sketch.</desc>
    <defs></defs>
    <g id="Symbols" stroke="none" stroke-width="1" fill="none" fill-rule="evenodd">
        <g id="icon/calendar" transform="translate(-8.000000, -9.000000)" fill="#000000" fill-rule="nonzero">
            <path d="M32.4038462,11.0833333 L29.8076923,11.0833333 L29.8076923,12.6458333 C29.8076923,12.9322917 29.5740385,13.1666667 29.2884615,13.1666667 L28.25,13.1666667 C27.9644231,13.1666667 27.7307692,12.9322917 27.7307692,12.6458333 L27.7307692,11.0833333 L15.2692308,11.0833333 L15.2692308,12.6458333 C15.2692308,12.9322917 15.0355769,13.1666667 14.75,13.1666667 L13.7115385,13.1666667 C13.4259615,13.1666667 13.1923077,12.9322917 13.1923077,12.6458333 L13.1923077,11.0833333 L10.5961538,11.0833333 C9.16826923,11.0833333 8,12.2552083 8,13.6875 L8,31.3958333 C8,32.828125 9.16826923,34 10.5961538,34 L32.4038462,34 C33.8317308,34 35,32.828125 35,31.3958333 L35,13.6875 C35,12.2552083 33.8317308,11.0833333 32.4038462,11.0833333 Z M32.9230769,30.6145833 C32.9230769,31.3307292 32.3389423,31.9166667 31.625,31.9166667 L11.375,31.9166667 C10.6610577,31.9166667 10.0769231,31.3307292 10.0769231,30.6145833 L10.0769231,18.8958333 C10.0769231,18.609375 10.3105769,18.375 10.5961538,18.375 L32.4038462,18.375 C32.6894231,18.375 32.9230769,18.609375 32.9230769,18.8958333 L32.9230769,30.6145833 Z M15.2692308,9.52083333 C15.2692308,9.234375 15.0355769,9 14.75,9 L13.7115385,9 C13.4259615,9 13.1923077,9.234375 13.1923077,9.52083333 L13.1923077,11.0833333 L15.2692308,11.0833333 L15.2692308,9.52083333 Z M29.8076923,9.52083333 C29.8076923,9.234375 29.5740385,9 29.2884615,9 L28.25,9 C27.9644231,9 27.7307692,9.234375 27.7307692,9.52083333 L27.7307692,11.0833333 L29.8076923,11.0833333 L29.8076923,9.52083333 Z" id="Shape"></path>
        </g>
    </g>
</svg>