<?xml version="1.0" encoding="iso-8859-1"?>
<!-- Generator: Adobe Illustrator 19.0.0, SVG Export Plug-In . SVG Version: 6.00 Build 0)  -->
<svg version="1.1" id="Layer_1" xmlns="http://www.w3.org/2000/svg" xmlns:xlink="http://www.w3.org/1999/xlink" x="0px" y="0px"
	 viewBox="0 0 512 512" style="enable-background:new 0 0 512 512;" xml:space="preserve">
<g>
	<path style="fill:#1D1D1B;" d="M0,296v56h64v39.999h16V352h352v39.999h16V352h64v-56H0z M496.001,336.001H16v-24.002h480V336.001z"
		/>
	<path style="fill:#1D1D1B;" d="M448,288v-16.692C448,249.634,430.366,232,408.691,232H103.309C81.634,232,64,249.634,64,271.309
		V288h16v-16.692C80,258.456,90.456,248,103.309,248h305.382C421.544,248,432,258.456,432,271.309V288H448z"/>
	<polygon style="fill:#1D1D1B;" points="48,136 464.001,136 464.001,288 480,288 480,120.001 32,120.001 32,288 48,288 	"/>
	<path style="fill:#1D1D1B;" d="M248,224v-19.92c0-15.484-12.597-28.08-28.08-28.08h-79.838c-15.484,0-28.081,12.596-28.081,28.08
		V224h16v-19.92c0-6.662,5.419-12.081,12.081-12.081h79.838c6.661,0,12.08,5.419,12.08,12.081V224H248z"/>
	<path style="fill:#1D1D1B;" d="M400,224v-19.92c0-15.484-12.597-28.08-28.081-28.08H292.08c-15.483,0-28.08,12.596-28.08,28.08V224
		h16v-19.92c0-6.662,5.419-12.081,12.08-12.081h79.838c6.662,0,12.081,5.419,12.081,12.081V224H400z"/>
</g>
<g>
</g>
<g>
</g>
<g>
</g>
<g>
</g>
<g>
</g>
<g>
</g>
<g>
</g>
<g>
</g>
<g>
</g>
<g>
</g>
<g>
</g>
<g>
</g>
<g>
</g>
<g>
</g>
<g>
</g>
</svg>
