<?xml version="1.0" encoding="UTF-8"?>
<svg width="21px" height="21px" viewBox="0 0 21 21" version="1.1" xmlns="http://www.w3.org/2000/svg" xmlns:xlink="http://www.w3.org/1999/xlink">
    <!-- Generator: Sketch 50.2 (55047) - http://www.bohemiancoding.com/sketch -->
    <title>Shape</title>
    <desc>Created with Sketch.</desc>
    <defs></defs>
    <g id="Symbols" stroke="none" stroke-width="1" fill="none" fill-rule="evenodd">
        <g id="icon/search" transform="translate(-11.000000, -11.000000)" fill="#FFFFFF" fill-rule="nonzero">
            <path d="M31.7536529,30.4800833 L25.9130992,24.5863056 C27.056054,23.1538662 27.7451081,21.3387139 27.7451081,19.3650091 C27.7451081,14.7451185 23.9990601,11 19.372554,11 C14.746048,11 11,14.7505858 11,19.3704764 C11,23.9903671 14.746048,27.7354856 19.372554,27.7354856 C21.3740921,27.7354856 23.206101,27.0356678 24.6498334,25.86566 L30.4521063,31.7211664 C30.6271042,31.9070555 30.8677262,32 31.1028796,32 C31.3270956,32 31.5513116,31.9179901 31.7208408,31.7539703 C32.0817739,31.4095288 32.0927113,30.8409268 31.7536529,30.4800833 Z M19.5,26 C17.7641431,26 16.1310316,25.3234804 14.9034942,24.0949209 C13.6759567,22.8663614 13,21.2318901 13,19.5 C13,17.7626978 13.6759567,16.1282265 14.9034942,14.9050791 C16.1310316,13.6765196 17.7641431,13 19.5,13 C21.2358569,13 22.8689684,13.6765196 24.0965058,14.9050791 C25.3240433,16.1336386 26,17.7681099 26,19.5 C26,21.2373022 25.3240433,22.8717735 24.0965058,24.0949209 C22.8689684,25.3234804 21.2358569,26 19.5,26 Z" id="Shape"></path>
        </g>
    </g>
</svg>